<svg version="1.2" baseProfile="tiny-ps" xmlns="http://www.w3.org/2000/svg" viewBox="0 0 18 10" width="18" height="10">
	<title>arrow-down-svg</title>
	<style>
		tspan { white-space:pre }
		.shp0 { fill: #00c0d4 } 
	</style>
	<path id="Layer" class="shp0" d="M8.75 6.99L15.36 0.37C15.48 0.25 15.61 0.16 15.77 0.1C15.92 0.03 16.08 0 16.24 0C16.41 0 16.57 0.03 16.72 0.1C16.87 0.16 17.01 0.25 17.13 0.37C17.24 0.48 17.33 0.62 17.39 0.77C17.46 0.93 17.49 1.09 17.49 1.25C17.49 1.42 17.46 1.58 17.39 1.73C17.33 1.88 17.24 2.02 17.13 2.14L9.63 9.64C9.52 9.75 9.39 9.84 9.24 9.9C9.09 9.96 8.94 10 8.78 10C8.62 10 8.46 9.98 8.31 9.92C8.16 9.87 8.03 9.78 7.91 9.67L0.36 2.14C0.14 1.91 0.01 1.59 0.01 1.27C0.01 0.94 0.15 0.62 0.38 0.39C0.61 0.16 0.92 0.03 1.25 0.02C1.58 0.02 1.89 0.15 2.13 0.37L8.75 6.99Z" />
</svg>