<svg version="1.2" baseProfile="tiny-ps" xmlns="http://www.w3.org/2000/svg" viewBox="0 0 16 16" width="16" height="16">
	<title>arrow-down-secondary-svg</title>
	<style>
		tspan { white-space:pre }
		.shp0 { fill: #00c0d4 } 
	</style>
	<path id="Layer" class="shp0" d="M14.55 6.8L15.34 7.6C15.42 7.68 15.49 7.77 15.53 7.87C15.57 7.98 15.59 8.09 15.59 8.2C15.59 8.31 15.57 8.43 15.53 8.53C15.49 8.63 15.42 8.73 15.34 8.81L8.4 15.75C8.32 15.83 8.23 15.89 8.13 15.94C8.02 15.98 7.91 16 7.8 16C7.68 16 7.57 15.98 7.47 15.94C7.37 15.89 7.27 15.83 7.19 15.75L0.25 8.81C0.17 8.73 0.11 8.63 0.07 8.53C0.02 8.42 0 8.31 0 8.2C0 8.09 0.02 7.98 0.07 7.87C0.11 7.77 0.17 7.67 0.25 7.59L1.05 6.8C1.13 6.72 1.22 6.66 1.33 6.61C1.43 6.57 1.55 6.55 1.66 6.55C1.77 6.55 1.89 6.58 1.99 6.62C2.1 6.67 2.19 6.73 2.27 6.82L6.37 11.12L6.37 0.86C6.37 0.74 6.39 0.63 6.43 0.53C6.48 0.42 6.54 0.33 6.62 0.25C6.7 0.17 6.79 0.11 6.9 0.06C7 0.02 7.11 0 7.23 0L8.37 0C8.48 0 8.59 0.02 8.7 0.06C8.8 0.11 8.9 0.17 8.98 0.25C9.06 0.33 9.12 0.42 9.16 0.53C9.2 0.63 9.23 0.74 9.23 0.86L9.23 11.12L13.33 6.82C13.4 6.74 13.5 6.67 13.6 6.62C13.71 6.58 13.82 6.55 13.93 6.55C14.05 6.55 14.16 6.57 14.27 6.62C14.37 6.66 14.47 6.72 14.55 6.8Z" />
</svg>