<svg version="1.2" baseProfile="tiny-ps" xmlns="http://www.w3.org/2000/svg" viewBox="0 0 11 9" width="11" height="9">
	<title>check-primary-svg</title>
	<style>
		tspan { white-space:pre }
		.shp0 { fill: #00c0d4 } 
	</style>
	<path id="Layer" class="shp0" d="M3.74 8.04L0.16 4.47C0.11 4.42 0.07 4.36 0.04 4.29C0.01 4.22 0 4.15 0 4.08C0 4.01 0.01 3.93 0.04 3.87C0.07 3.8 0.11 3.74 0.16 3.69L0.94 2.91C0.99 2.86 1.05 2.82 1.12 2.79C1.18 2.76 1.26 2.75 1.33 2.75C1.4 2.75 1.47 2.76 1.54 2.79C1.61 2.82 1.67 2.86 1.72 2.91L4.13 5.32L9.28 0.16C9.33 0.11 9.39 0.07 9.46 0.04C9.53 0.01 9.6 0 9.67 0C9.74 0 9.82 0.01 9.88 0.04C9.95 0.07 10.01 0.11 10.06 0.16L10.84 0.94C10.89 0.99 10.93 1.05 10.96 1.12C10.99 1.18 11 1.26 11 1.33C11 1.4 10.99 1.47 10.96 1.54C10.93 1.61 10.89 1.67 10.84 1.72L4.51 8.04C4.46 8.09 4.4 8.13 4.34 8.16C4.27 8.19 4.2 8.2 4.13 8.2C4.05 8.2 3.98 8.19 3.91 8.16C3.85 8.13 3.79 8.09 3.74 8.04Z" />
</svg>