<svg version="1.2" baseProfile="tiny-ps" xmlns="http://www.w3.org/2000/svg" viewBox="0 0 15 15" width="15" height="15">
	<title>info-primary-svg</title>
	<style>
		tspan { white-space:pre }
		.shp0 { fill: #18da8d } 
		.shp1 { fill: #ff0a9c } 
		.shp2 { fill: #ffffff } 
	</style>
	<g id="Layer">
		<path id="Layer" fill-rule="evenodd" class="shp0" d="M7.5 0C8.48 0 9.46 0.19 10.37 0.57C11.28 0.95 12.11 1.5 12.8 2.2C13.5 2.89 14.05 3.72 14.43 4.63C14.81 5.54 15 6.52 15 7.5C15 10.53 13.17 13.27 10.37 14.43C7.57 15.59 4.34 14.95 2.2 12.8C0.05 10.66 -0.59 7.43 0.57 4.63C1.73 1.83 4.47 0 7.5 0ZM7.5 1.51C7.11 1.51 6.72 1.55 6.33 1.63C5.95 1.7 5.57 1.82 5.21 1.97C4.85 2.12 4.5 2.3 4.17 2.52C3.85 2.74 3.54 2.99 3.27 3.27C1.25 5.29 0.94 8.45 2.52 10.82C4.11 13.19 7.15 14.12 9.79 13.02C12.42 11.93 13.92 9.13 13.37 6.33C12.81 3.53 10.35 1.51 7.5 1.51L7.5 1.51Z" />
		<path id="Layer" class="shp1" d="M8.27 11.19L6.73 11.19L6.73 6.75L8.27 6.75L8.27 11.19ZM8.27 5.3L6.73 5.3L6.73 3.81L8.27 3.81L8.27 5.3Z" />
		<path id="Forma 1" class="shp2" d="M2 4L5 1" />
	</g>
</svg>